<svg width="55" height="55" viewBox="0 0 55 55" fill="none" xmlns="http://www.w3.org/2000/svg">
<path fill-rule="evenodd" clip-rule="evenodd" d="M44.2886 0.224025C44.7308 0.497335 45 0.980135 45 1.5V46.5C45 47.3284 44.3284 48 43.5 48H34.5C33.6716 48 33 47.3284 33 46.5V42H30V46.5C30 47.3284 29.3284 48 28.5 48H1.5C0.671573 48 0 47.3284 0 46.5V30C0 29.3544 0.413145 28.7811 1.02566 28.577L18 22.9189V13.5C18 12.9318 18.321 12.4124 18.8292 12.1584L42.8292 0.158361C43.2942 -0.0741306 43.8464 -0.0492845 44.2886 0.224025ZM18 26.0811L3 31.0811V45H18V26.0811ZM21 45H27V40.5C27 39.6716 27.6716 39 28.5 39H34.5C35.3284 39 36 39.6716 36 40.5V45H42V3.92705L21 14.4271V45Z" fill="#F2F2F2"/>
<path d="M6 33H9V36H6V33Z" fill="#F2F2F2"/>
<path d="M12 33H15V36H12V33Z" fill="#F2F2F2"/>
<path d="M6 39H9V42H6V39Z" fill="#F2F2F2"/>
<path d="M12 39H15V42H12V39Z" fill="#F2F2F2"/>
<path d="M24 27H27V30H24V27Z" fill="#F2F2F2"/>
<path d="M30 27H33V30H30V27Z" fill="#F2F2F2"/>
<path d="M24 33H27V36H24V33Z" fill="#F2F2F2"/>
<path d="M30 33H33V36H30V33Z" fill="#F2F2F2"/>
<path d="M36 27H39V30H36V27Z" fill="#F2F2F2"/>
<path d="M36 33H39V36H36V33Z" fill="#F2F2F2"/>
<path d="M24 21H27V24H24V21Z" fill="#F2F2F2"/>
<path d="M30 21H33V24H30V21Z" fill="#F2F2F2"/>
<path d="M36 21H39V24H36V21Z" fill="#F2F2F2"/>
<path d="M24 15H27V18H24V15Z" fill="#F2F2F2"/>
<path d="M30 15H33V18H30V15Z" fill="#F2F2F2"/>
<path d="M36 15H39V18H36V15Z" fill="#F2F2F2"/>
<path d="M36 9H39V12H36V9Z" fill="#F2F2F2"/>
</svg>
