<svg width="48" height="48" viewBox="0 0 48 48" fill="none" xmlns="http://www.w3.org/2000/svg">
<path d="M45 36C45 37.6569 43.6569 39 42 39H6C4.34315 39 3 37.6569 3 36V18C3 16.3431 4.34315 15 6 15H9.51472C11.9017 15 14.1909 14.0518 15.8787 12.364L18.364 9.87868C18.9266 9.31607 19.6896 9 20.4853 9H27.5147C28.3104 9 29.0734 9.31607 29.636 9.87868L32.1213 12.364C33.8092 14.0518 36.0983 15 38.4853 15H42C43.6569 15 45 16.3431 45 18V36ZM6 12C2.68629 12 0 14.6863 0 18V36C0 39.3137 2.68629 42 6 42H42C45.3137 42 48 39.3137 48 36V18C48 14.6863 45.3137 12 42 12H38.4853C36.894 12 35.3679 11.3679 34.2426 10.2426L31.7574 7.75736C30.6321 6.63214 29.106 6 27.5147 6H20.4853C18.894 6 17.3679 6.63214 16.2426 7.75736L13.7574 10.2426C12.6321 11.3679 11.106 12 9.51472 12H6Z" fill="#F2F2F2"/>
<path d="M24 33C19.8579 33 16.5 29.6421 16.5 25.5C16.5 21.3579 19.8579 18 24 18C28.1421 18 31.5 21.3579 31.5 25.5C31.5 29.6421 28.1421 33 24 33ZM24 36C29.799 36 34.5 31.299 34.5 25.5C34.5 19.701 29.799 15 24 15C18.201 15 13.5 19.701 13.5 25.5C13.5 31.299 18.201 36 24 36Z" fill="#F2F2F2"/>
<path d="M9 19.5C9 20.3284 8.32843 21 7.5 21C6.67157 21 6 20.3284 6 19.5C6 18.6716 6.67157 18 7.5 18C8.32843 18 9 18.6716 9 19.5Z" fill="#F2F2F2"/>
</svg>
