<svg width="55" height="55" viewBox="0 0 55 55" fill="none" xmlns="http://www.w3.org/2000/svg">
<path fill-rule="evenodd" clip-rule="evenodd" d="M37.3091 20.0994C37.9803 20.6486 37.9803 21.5389 37.3091 22.0881L26.9966 30.5256C26.6743 30.7893 26.2371 30.9375 25.7812 30.9375C25.3254 30.9375 24.8882 30.7893 24.5659 30.5256L19.4097 26.3069C18.7384 25.7577 18.7384 24.8673 19.4097 24.3181C20.0809 23.769 21.1691 23.769 21.8403 24.3181L25.7812 27.5425L34.8784 20.0994C35.5496 19.5502 36.6379 19.5502 37.3091 20.0994Z" fill="#F2F2F2"/>
<path d="M13.75 4.21875H10.3125C6.51554 4.21875 3.4375 6.73715 3.4375 9.84375V39.375C3.4375 42.4816 6.51554 45 10.3125 45H44.6875C48.4845 45 51.5625 42.4816 51.5625 39.375V9.84375C51.5625 6.73715 48.4845 4.21875 44.6875 4.21875H41.25V7.03125H44.6875C46.586 7.03125 48.125 8.29045 48.125 9.84375V39.375C48.125 40.9283 46.586 42.1875 44.6875 42.1875H10.3125C8.41402 42.1875 6.875 40.9283 6.875 39.375V9.84375C6.875 8.29045 8.41402 7.03125 10.3125 7.03125H13.75V4.21875Z" fill="#F2F2F2"/>
<path d="M32.6562 2.8125C33.6055 2.8125 34.375 3.4421 34.375 4.21875V7.03125C34.375 7.8079 33.6055 8.4375 32.6562 8.4375H22.3438C21.3945 8.4375 20.625 7.8079 20.625 7.03125V4.21875C20.625 3.4421 21.3945 2.8125 22.3438 2.8125H32.6562ZM22.3438 0C19.496 0 17.1875 1.8888 17.1875 4.21875V7.03125C17.1875 9.3612 19.496 11.25 22.3438 11.25H32.6562C35.504 11.25 37.8125 9.3612 37.8125 7.03125V4.21875C37.8125 1.8888 35.504 0 32.6562 0H22.3438Z" fill="#F2F2F2"/>
</svg>
