<svg width="48" height="48" viewBox="0 0 48 48" fill="none" xmlns="http://www.w3.org/2000/svg">
<path d="M48 24C48 24 39 7.5 24 7.5C9 7.5 0 24 0 24C0 24 9 40.5 24 40.5C39 40.5 48 24 48 24ZM3.5181 24C3.68888 23.7396 3.88362 23.4503 4.10182 23.1373C5.10648 21.6958 6.58893 19.7787 8.49632 17.8713C12.3631 14.0045 17.6419 10.5 24 10.5C30.3581 10.5 35.6369 14.0045 39.5037 17.8713C41.4111 19.7787 42.8935 21.6958 43.8982 23.1373C44.1164 23.4503 44.3111 23.7396 44.4819 24C44.3111 24.2604 44.1164 24.5497 43.8982 24.8627C42.8935 26.3042 41.4111 28.2213 39.5037 30.1287C35.6369 33.9955 30.3581 37.5 24 37.5C17.6419 37.5 12.3631 33.9955 8.49632 30.1287C6.58893 28.2213 5.10648 26.3042 4.10182 24.8627C3.88362 24.5497 3.68888 24.2604 3.5181 24Z" fill="#F2F2F2"/>
<path d="M24 16.5C19.8579 16.5 16.5 19.8579 16.5 24C16.5 28.1421 19.8579 31.5 24 31.5C28.1421 31.5 31.5 28.1421 31.5 24C31.5 19.8579 28.1421 16.5 24 16.5ZM13.5 24C13.5 18.201 18.201 13.5 24 13.5C29.799 13.5 34.5 18.201 34.5 24C34.5 29.799 29.799 34.5 24 34.5C18.201 34.5 13.5 29.799 13.5 24Z" fill="#F2F2F2"/>
</svg>
