<svg width="48" height="48" viewBox="0 0 48 48" fill="none" xmlns="http://www.w3.org/2000/svg">
<path d="M24.0001 14.2626C18.6223 14.2626 14.2628 18.6222 14.2628 23.9999C14.2628 29.3777 18.6223 33.7372 24.0001 33.7372C29.3779 33.7372 33.7374 29.3777 33.7374 23.9999C33.7374 18.6222 29.3779 14.2626 24.0001 14.2626ZM17.2628 23.9999C17.2628 20.279 20.2792 17.2626 24.0001 17.2626C27.721 17.2626 30.7374 20.279 30.7374 23.9999C30.7374 27.7208 27.721 30.7372 24.0001 30.7372C20.2792 30.7372 17.2628 27.7208 17.2628 23.9999Z" fill="#F2F2F2"/>
<path d="M29.3894 4.03013C27.8056 -1.34338 20.1944 -1.34337 18.6106 4.03013L18.329 4.98538C17.8574 6.58558 16.0296 7.34265 14.5646 6.54465L13.6901 6.06828C8.77049 3.38858 3.38858 8.7705 6.06829 13.6901L6.54465 14.5646C7.34265 16.0296 6.58558 17.8574 4.98538 18.329L4.03013 18.6106C-1.34338 20.1944 -1.34337 27.8056 4.03013 29.3894L4.98538 29.671C6.58558 30.1426 7.34265 31.9704 6.54465 33.4354L6.06828 34.3099C3.38858 39.2295 8.77048 44.6114 13.6901 41.9317L14.5646 41.4554C16.0296 40.6574 17.8574 41.4144 18.329 43.0146L18.6106 43.9699C20.1944 49.3434 27.8056 49.3434 29.3894 43.9699L29.671 43.0146C30.1426 41.4144 31.9704 40.6574 33.4354 41.4554L34.3099 41.9317C39.2295 44.6114 44.6114 39.2295 41.9317 34.3099L41.4553 33.4354C40.6573 31.9704 41.4144 30.1426 43.0146 29.671L43.9699 29.3894C49.3434 27.8056 49.3434 20.1944 43.9699 18.6106L43.0146 18.329C41.4144 17.8574 40.6573 16.0296 41.4553 14.5646L41.9317 13.6901C44.6114 8.77048 39.2295 3.38859 34.3099 6.06829L33.4354 6.54465C31.9704 7.34265 30.1426 6.58558 29.671 4.98538L29.3894 4.03013ZM21.4882 4.8783C22.2264 2.3739 25.7736 2.3739 26.5118 4.87829L26.7934 5.83354C27.8054 9.26698 31.727 10.8914 34.8704 9.17917L35.745 8.70281C38.0378 7.45389 40.5461 9.96221 39.2972 12.255L38.8208 13.1296C37.1086 16.273 38.733 20.1946 42.1665 21.2066L43.1217 21.4882C45.6261 22.2264 45.6261 25.7736 43.1217 26.5118L42.1665 26.7934C38.733 27.8054 37.1086 31.727 38.8208 34.8704L39.2972 35.745C40.5461 38.0378 38.0378 40.5461 35.745 39.2972L34.8704 38.8208C31.727 37.1086 27.8054 38.733 26.7934 42.1665L26.5118 43.1217C25.7736 45.6261 22.2264 45.6261 21.4882 43.1217L21.2066 42.1665C20.1946 38.733 16.273 37.1086 13.1296 38.8208L12.255 39.2972C9.96221 40.5461 7.45389 38.0378 8.7028 35.745L9.17917 34.8704C10.8914 31.727 9.26699 27.8054 5.83355 26.7934L4.87829 26.5118C2.3739 25.7736 2.3739 22.2264 4.87829 21.4882L5.83354 21.2066C9.26698 20.1946 10.8914 16.273 9.17917 13.1296L8.7028 12.255C7.45389 9.96221 9.96221 7.45389 12.255 8.7028L13.1296 9.17917C16.273 10.8914 20.1946 9.26699 21.2066 5.83355L21.4882 4.8783Z" fill="#F2F2F2"/>
</svg>
