<svg width="48" height="48" viewBox="0 0 48 48" fill="none" xmlns="http://www.w3.org/2000/svg">
<path d="M0 3.43841C0 1.53994 1.57804 0 3.52474 0H44.4753C46.4219 0 48 1.53994 48 3.43842V44.5616C48 46.4607 46.4219 48 44.4753 48L3.52474 48C1.57804 48 0 46.4607 0 44.5616V3.43841ZM14.8301 40.181V18.5063H7.62588V40.181H14.8301ZM11.228 15.547C13.7402 15.547 15.3039 13.8826 15.3039 11.8026C15.2571 9.67581 13.7403 8.05761 11.2756 8.05761C8.81127 8.05761 7.2 9.67581 7.2 11.8026C7.2 13.8826 8.76335 15.547 11.181 15.547H11.228ZM25.9542 40.181V28.0769C25.9542 27.4291 26.001 26.782 26.1912 26.3189C26.712 25.0246 27.8974 23.6841 29.8876 23.6841C32.4945 23.6841 33.5373 25.6717 33.5373 28.5855V40.181H40.741V27.753C40.741 21.0955 37.1868 17.9977 32.4469 17.9977C28.6253 17.9977 26.9118 20.0981 25.9544 21.575V21.6497H25.9063C25.9221 21.625 25.9381 21.6001 25.9544 21.575V18.5063H18.7502C18.8447 20.5401 18.7502 40.181 18.7502 40.181H25.9542Z" fill="#2D9CDB"/>
</svg>
