<svg width="48" height="48" viewBox="0 0 48 48" fill="none" xmlns="http://www.w3.org/2000/svg">
<path d="M18 24C22.9706 24 27 19.9706 27 15C27 10.0294 22.9706 6 18 6C13.0294 6 9 10.0294 9 15C9 19.9706 13.0294 24 18 24ZM24 15C24 18.3137 21.3137 21 18 21C14.6863 21 12 18.3137 12 15C12 11.6863 14.6863 9 18 9C21.3137 9 24 11.6863 24 15Z" fill="#F2F2F2"/>
<path d="M36 39C36 42 33 42 33 42H3C3 42 0 42 0 39C0 36 3 27 18 27C33 27 36 36 36 39ZM32.9999 38.9896C32.9957 38.2492 32.5387 36.0313 30.5036 33.9963C28.5469 32.0395 24.8673 30 18 30C11.1326 30 7.45306 32.0395 5.49629 33.9963C3.46126 36.0313 3.00427 38.2492 3 38.9896H32.9999Z" fill="#F2F2F2"/>
<path fill-rule="evenodd" clip-rule="evenodd" d="M47.5607 15.4393C48.1464 16.0251 48.1464 16.9749 47.5607 17.5607L38.5607 26.5607C38.2794 26.842 37.8978 27 37.5 27C37.1022 27 36.7206 26.842 36.4393 26.5607L31.9393 22.0607C31.3536 21.4749 31.3536 20.5251 31.9393 19.9393C32.5251 19.3536 33.4749 19.3536 34.0607 19.9393L37.5 23.3787L45.4393 15.4393C46.0251 14.8536 46.9749 14.8536 47.5607 15.4393Z" fill="#F2F2F2"/>
</svg>
