<svg width="55" height="55" viewBox="0 0 55 55" fill="none" xmlns="http://www.w3.org/2000/svg">
<path fill-rule="evenodd" clip-rule="evenodd" d="M51.5625 17.1875H3.4375V44.6875C3.4375 46.586 4.97652 48.125 6.875 48.125H48.125C50.0235 48.125 51.5625 46.586 51.5625 44.6875V17.1875ZM51.5625 13.75H3.4375V10.3125C3.4375 8.41402 4.97652 6.875 6.875 6.875H48.125C50.0235 6.875 51.5625 8.41402 51.5625 10.3125V13.75ZM55 10.3125C55 6.51554 51.922 3.4375 48.125 3.4375H6.875C3.07804 3.4375 0 6.51554 0 10.3125V44.6875C0 48.4845 3.07804 51.5625 6.875 51.5625H48.125C51.922 51.5625 55 48.4845 55 44.6875V10.3125Z" fill="#F2F2F2"/>
<path d="M10.3125 39.5312C10.3125 38.582 11.082 37.8125 12.0312 37.8125H15.4688C16.418 37.8125 17.1875 38.582 17.1875 39.5312V42.9688C17.1875 43.918 16.418 44.6875 15.4688 44.6875H12.0312C11.082 44.6875 10.3125 43.918 10.3125 42.9688V39.5312Z" fill="#F2F2F2"/>
<path d="M24.0625 39.5312C24.0625 38.582 24.832 37.8125 25.7812 37.8125H29.2188C30.168 37.8125 30.9375 38.582 30.9375 39.5312V42.9688C30.9375 43.918 30.168 44.6875 29.2188 44.6875H25.7812C24.832 44.6875 24.0625 43.918 24.0625 42.9688V39.5312Z" fill="#F2F2F2"/>
<path d="M37.8125 39.5312C37.8125 38.582 38.582 37.8125 39.5312 37.8125H42.9688C43.918 37.8125 44.6875 38.582 44.6875 39.5312V42.9688C44.6875 43.918 43.918 44.6875 42.9688 44.6875H39.5312C38.582 44.6875 37.8125 43.918 37.8125 42.9688V39.5312Z" fill="#F2F2F2"/>
</svg>
